<?xml version="1.0" encoding="UTF-8"?>
<svg viewBox="0 0 38 46" xmlns="http://www.w3.org/2000/svg">
<path d="m7.1361 0.71088c-0.83116 0.28874-1.4409 0.92125-1.6919 1.7551-0.0727 0.24161-0.12702 0.79263-0.12702 1.2887v0.86657l-1.6643 0.02911c-1.9031 0.03329-2.1911 0.11211-2.8625 0.78358-0.73361 0.73361-0.91246 1.6014-0.71657 3.4778 0.33702 3.2289 1.4387 5.7248 3.3034 7.4838 0.97051 0.9155 2.1549 1.6249 3.2738 1.9607 0.36197 0.1087 0.42694 0.1717 0.65283 0.6334 0.72846 1.4888 1.9643 3.2985 3.1612 4.629 0.6806 0.7566 1.9792 1.9148 2.9737 2.6523 0.8989 0.6666 1.1327 0.906 1.3903 1.4241 0.2018 0.406 0.2081 0.491 0.2352 3.1747l0.0278 2.7575-0.6655 0.3289c-1.0575 0.5227-1.7129 1.3948-1.9289 2.5667l-0.1065 0.5782-0.7633 0.0384c-0.918 0.0461-1.4308 0.2503-1.9614 0.7809-0.7447 0.7447-0.75092 0.7789-0.78083 4.3209l-0.02645 3.1227 0.26318 0.2946 0.26326 0.2946 18.383 0.0468 0.2912-0.2602 0.2912-0.2603v-3.1804c0-3.0668-0.0068-3.1952-0.1907-3.5931-0.1049-0.227-0.3586-0.5805-0.5637-0.7856-0.5297-0.5297-1.0438-0.7348-1.9566-0.7807l-0.7584-0.0381-0.1105-0.5835c-0.2254-1.1879-0.9293-2.0904-2.0399-2.6154l-0.5603-0.2649 0.0278-2.7627c0.0271-2.6893 0.0334-2.7739 0.2353-3.18 0.2575-0.518 0.4912-0.7575 1.3902-1.4243 2.5811-1.9146 4.6072-4.2892 6.0083-7.0419 0.3625-0.7122 0.4034-0.7577 0.7819-0.8723 1.1319-0.3426 2.3799-1.094 3.3127-1.9944 1.8499-1.7857 2.9278-4.2474 3.2621-7.4504 0.1959-1.8764 0.0171-2.7442-0.7165-3.4778-0.6708-0.67076-0.9605-0.75029-2.8534-0.78349l-1.6552-0.02894-0.0347-1.0362c-0.0271-0.81198-0.0751-1.1254-0.222-1.4488-0.2386-0.52538-0.8163-1.1044-1.346-1.3493l-0.4127-0.19075-11.184-0.019971c-10.427-0.01864-11.214-0.009587-11.628 0.13438zm22.744 1.907 0.2462 0.24622-0.0024 4.68c-0.0027 5.1383-0.019 5.3476-0.5817 7.4671-0.4644 1.749-1.3683 3.7691-2.3277 5.2014-1.1104 1.658-2.7735 3.382-4.5032 4.6682-1.0778 0.8015-1.4465 1.1918-1.8106 1.9167-0.4611 0.9181-0.4937 1.2293-0.4937 4.7049v3.2197l0.244 0.2687c0.1885 0.2075 0.3657 0.2902 0.7767 0.3629 0.861 0.1523 1.4664 0.695 1.6012 1.435l0.0607 0.3328h-8.9157l0.0606-0.3328c0.1345-0.7382 0.7776-1.3223 1.5575-1.4146 0.3375-0.04 0.5499-0.1256 0.746-0.3007l0.2741-0.2449 0.0254-3.2548c0.0275-3.5326-0.0025-3.836-0.4732-4.773-0.3657-0.7283-0.7332-1.1176-1.8121-1.9199-1.7307-1.287-3.3986-3.0163-4.5024-4.6682-0.94227-1.4101-1.8749-3.4918-2.3262-5.1925-0.56523-2.1296-0.58129-2.3355-0.58396-7.4686-0.0023-4.5495 0.00231-4.678 0.17513-4.8701 0.09764-0.10864 0.25741-0.23042 0.35504-0.27072 0.09764-0.04021 5.0795-0.0655 11.071-0.0561l10.894 0.01714 0.246 0.24622zm-24.562 6.1735c0 3.1798 0.19625 5.032 0.7195 6.792 0.09941 0.3342 0.16323 0.625 0.14184 0.6464-0.08468 0.0847-1.3824-0.871-1.854-1.3654-1.5573-1.6327-2.4659-4.1597-2.5014-6.957-0.01056-0.82858 0.00968-0.96803 0.16554-1.1422 0.28031-0.31323 0.44691-0.34332 1.9306-0.34936l1.398-0.00559v2.3811zm29.888-2.0896c0.2399 0.24099 0.2456 0.27037 0.2339 1.1983-0.0352 2.8044-0.9423 5.3298-2.5013 6.9643-0.4716 0.4944-1.7694 1.4501-1.8541 1.3654-0.0214-0.0214 0.0424-0.3122 0.1419-0.6464 0.5235-1.761 0.7195-3.6121 0.7195-6.7979v-2.387l3.0143 0.0561 0.2458 0.24711zm-8.8762 32.485 0.246 0.2459 0.0526 4.7894h-15.993l0.0263-2.3874c0.0247-2.2422 0.0371-2.3994 0.2038-2.5845 0.0976-0.1085 0.2574-0.2302 0.355-0.2707 0.0977-0.0404 3.4818-0.0656 7.5205-0.0561l7.3429 0.0174 0.2462 0.246zm-11.569 1.5718c-0.2794 0.1129-0.567 0.5244-0.567 0.8112 0 0.154 0.1013 0.3663 0.2588 0.5428l0.2589 0.2899 4.1738 0.0534 0.2929-0.2617c0.2433-0.2175 0.2929-0.3248 0.2929-0.6349 0-0.3089-0.0497-0.4176-0.288-0.6304l-0.2878-0.2572-1.9735 0.0055c-1.0855 0.0032-2.0579 0.0398-2.161 0.0814zm7.1009 0c-0.2795 0.1129-0.567 0.5244-0.567 0.8112 0 0.3553 0.4079 0.7817 0.8088 0.8454 0.2703 0.0429 0.3676 9e-3 0.6193-0.2159 0.2494-0.2228 0.2987-0.3284 0.2987-0.64 0-0.3089-0.0497-0.4176-0.2879-0.6304-0.2916-0.2606-0.5321-0.3076-0.8719-0.1703z" clip-rule="evenodd" fill="#fff" fill-rule="evenodd"/>
<path d="m18.462 5.9422c-0.4669 0.13048-0.5679 0.27551-1.4359 2.0624-0.4864 1.0013-0.898 1.8342-0.9147 1.8508-0.0166 0.01669-0.8426 0.1457-1.8355 0.2869-0.9929 0.1411-1.9507 0.298-2.1284 0.3487-0.3938 0.1124-0.6089 0.4173-0.6089 0.8637 0 0.3155 0.0877 0.4224 1.5021 1.8305l1.5022 1.4953-0.342 2.0072c-0.305 1.7904-0.3291 2.038-0.2226 2.2928 0.0657 0.1572 0.2 0.3288 0.2986 0.3816 0.4271 0.2286 0.7744 0.1161 2.564-0.8305l1.7514-0.9264 1.7867 0.9264c1.9695 1.0212 2.266 1.1007 2.6546 0.7121 0.1178-0.1179 0.2372-0.3075 0.2652-0.4216 0.0282-0.1141-0.102-1.0946-0.289-2.1791l-0.34-1.9717 1.4831-1.4812c0.9503-0.9491 1.499-1.564 1.5272-1.7118 0.0687-0.3592-0.1562-0.7884-0.4896-0.9342-0.1614-0.0706-1.0323-0.2321-1.9354-0.3589-0.9032-0.1268-1.7535-0.25275-1.8898-0.27982-0.2209-0.04394-0.3469-0.24791-1.1727-1.8982-0.509-1.0169-0.9681-1.8752-1.0202-1.9076-0.1716-0.10607-0.5748-0.19545-0.7104-0.15755zm0.7763 4.1763c0.3183 0.6183 0.6765 1.1917 0.7989 1.2791 0.1813 0.1294 2.2012 0.506 2.7787 0.5181 0.0583 0.0012-0.3633 0.4555-0.9369 1.0096-0.5977 0.5773-0.8878 0.8317-0.9927 1.1476-0.1071 0.3225-0.0212 0.709 0.1273 1.5685 0.097 0.5614 0.1766 1.0897 0.1769 1.1741 5e-4 0.1218-0.2426 0.0261-1.183-0.466-0.6511-0.3406-1.2951-0.6193-1.4314-0.6193-0.1362 0-0.7819 0.2823-1.4348 0.6272-0.6529 0.345-1.1871 0.5857-1.1871 0.535s0.0989-0.656 0.2198-1.3451c0.1921-1.0956 0.2048-1.2883 0.1008-1.5337-0.0654-0.1543-0.5261-0.6743-1.0238-1.1556-0.4976-0.4813-0.8897-0.8901-0.8713-0.9085 0.0183-0.0184 0.6098-0.1169 1.3143-0.219 0.7045-0.1019 1.3667-0.2405 1.4714-0.3079 0.1048-0.0673 0.4552-0.6691 0.7788-1.3373 0.3236-0.66822 0.6173-1.1862 0.6528-1.1512 0.0355 0.03506 0.324 0.56807 0.6413 1.1844z" clip-rule="evenodd" fill="#DB3138" fill-rule="evenodd"/>
<circle cx="22.279" cy="41.648" r=".97637" fill="#DB3138"/>
</svg>
