<?xml version="1.0" encoding="UTF-8"?>
<svg viewBox="0 0 70 46" xmlns="http://www.w3.org/2000/svg">
<path d="m15.003 0.48876c-0.1906 0.1906-0.3466 0.43823-0.3466 0.55047 0 0.1673-0.4241 0.21431-2.3648 0.26218-2.6558 0.0655-3.2582 0.21968-4.5416 1.1618-1.4084 1.0339-1.54 1.3396-4.8186 11.186-2.8213 8.4726-2.9888 9.0348-2.9201 9.7928 0.13977 1.5419 1.0128 2.8191 2.3496 3.4373 0.59932 0.2773 0.92644 0.303 4.3655 0.3436 3.9452 0.0466 4.2621 0.0012 4.4542-0.6401 0.0414-0.1381 0.492-3.3849 1.0017-7.2152 0.5095-3.8303 1.0112-7.1667 1.1145-7.4143 0.1035-0.2475 0.4358-0.6677 0.7385-0.9338l0.5505-0.4839 0.0964 2.6039c0.1638 4.4199 0.6324 10.076 1.0439 12.602 0.0874 0.5361 0.0914 0.5389 0.6386 0.4589 1.8413-0.2697 1.7032-0.2165 1.6198-0.6239-0.311-1.519-0.8405-7.7249-1.0106-11.846l-0.0947-2.2942h3.521l0.1606 0.5358c0.232 0.7747 1.0446 1.6484 1.9404 2.0867 0.8728 0.4271 1.1909 0.7888 1.1909 1.3542 0 0.5241-0.4978 1.0177-1.3308 1.3196-0.8164 0.296-1.7417 1.1699-2.0912 1.9746-0.2852 0.6568-4.3075 18.668-4.4365 19.866-0.3189 2.9627 1.9014 5.9706 4.8653 6.5907 1.0535 0.2204 23.019 0.2183 24.058-0.0023 2.9866-0.6342 5.1858-3.6123 4.8653-6.5884-0.1761-1.6341-4.1859-19.278-4.5544-20.039-0.4144-0.8564-1.1288-1.4975-2.0318-1.8233-1.1251-0.4059-1.5779-1.2453-1.0661-1.9761 0.1135-0.1621 0.5566-0.4659 0.9846-0.6754 1.2809-0.6266 2.1976-1.9923 2.1976-3.2735 0-0.3435 0.0752-0.4833 0.2979-0.554 0.1639-0.052 1.5019-0.81872 2.9733-1.7036l2.6754-1.6092h18.208l0.3465-0.3466c0.3438-0.34364 0.3466-0.36835 0.3466-3.0418 0-2.6734-0.0028-2.6982-0.3466-3.0418l-0.3465-0.3466h-24.592l-0.3465 0.3466c-0.1906 0.1906-0.3466 0.44473-0.3466 0.56473 0 0.19497-1.2015 0.21813-11.295 0.21813-10.093 0-11.295-0.02316-11.295-0.21813 0-0.12001-0.156-0.37414-0.3466-0.56473-0.3437-0.34378-0.3684-0.3466-3.0418-0.3466s-2.6982 0.002824-3.0418 0.3466zm4.1713 5.3007v3.3884h-2.259v-6.7768h2.259v3.3884zm41.79-2.2589v1.1295h-10.477l-4.2059 2.5314v-4.7903h14.683v1.1295zm6.7768 0v1.1295h-4.5179v-2.2589h4.5179v1.1295zm-53.085 2.3035v2.3036l-0.8118 0.33573c-0.9712 0.40166-2.1008 1.4768-2.5395 2.4169-0.2634 0.5647-0.3778 0.6672-0.8416 0.754-1.4491 0.2713-3.3032 1.6626-4.0542 3.0424-0.26896 0.4943-0.77736 2.2394-1.5694 5.3875-0.64436 2.5613-1.2085 4.6937-1.2537 4.7387-0.04518 0.0452-0.24128 0.0096-0.43597-0.079-0.43132-0.1966-0.91671-0.9573-0.91741-1.4377-7.1e-4 -0.4683 5.7123-17.592 6.0589-18.161 0.33602-0.55103 1.1154-1.1549 1.8113-1.4032 0.3443-0.12298 1.2336-0.19131 2.5415-0.19526l2.0119-0.00621v2.3035zm7.9063-1.1741v1.1295h2.2589v-2.2589h2.2589v2.2589h2.2589v-2.2589h2.259v2.2589h2.2589v-2.2589h2.2589v2.2589h2.259v-2.2589h2.2589v2.2589h2.2589v-2.2589h1.1295v4.5179h-22.589v-4.5179h1.1295v1.1295zm20.33 6.0518c0 0.5704-0.4438 1.0675-1.4153 1.5854-1.641 0.8746-2.3483 2.5585-1.7668 4.2067 0.3462 0.9809 0.878 1.5362 1.9793 2.0658 1.1613 0.5586 1.4454 0.8212 1.5717 1.4533l0.09 0.4495h-21.248l0.0899-0.4495c0.1264-0.6321 0.4105-0.8947 1.5718-1.4533 1.1013-0.5296 1.6331-1.0849 1.9793-2.0658 0.5815-1.6482-0.1258-3.3321-1.7668-4.2067-0.9715-0.5179-1.4153-1.015-1.4153-1.5854v-0.4045h20.33v0.4045zm-32.332 3.5134c-5e-4 0.1359-0.3176 2.5977-0.70463 5.4708-0.38698 2.8731-0.70408 5.2397-0.70464 5.2591-7.1e-4 0.0193-0.72526 0.0353-1.61 0.0353h-1.6088l1.0953-4.3497c0.60243-2.3925 1.1779-4.5049 1.2787-4.6944 0.36369-0.6827 0.7789-1.1452 1.3946-1.553 0.72611-0.481 0.86121-0.5074 0.85951-0.1681zm33.369 8.8239c0.0433 0.1748 0.8498 3.7802 1.7922 8.0122 1.8574 8.3416 1.8811 8.5247 1.262 9.7588-0.4207 0.8392-0.9216 1.3499-1.7612 1.796l-0.706 0.3751h-23.578l-0.5812-0.3108c-0.91-0.4868-1.4499-1.008-1.8382-1.7742-0.6734-1.3291-0.6628-1.4152 1.2142-9.8449 0.9424-4.232 1.7488-7.8374 1.7922-8.0122l0.0789-0.3176h22.246l0.0789 0.3176z" clip-rule="evenodd" fill="#fff" fill-rule="evenodd"/>
<path d="m36.041 26.042c0.3909-0.3916 0.9331-0.7823 1.2048-0.868 1.314-0.4141 2.4703-0.1238 3.4638 0.8696 0.7312 0.7312 1.0541 1.4463 1.0541 2.3343 0 2.2317-2.4917 4.0028-4.469 3.1766-0.2788-0.1165-0.528-0.2118-0.554-0.2118-0.0258 0 0.05 0.2701 0.1686 0.6001 0.3068 0.8539 0.4012 2.4343 0.2026 3.3902-0.2665 1.2817-1.019 2.6314-1.9766 3.5447-2.6931 2.5687-6.7697 2.5317-9.3832-0.0851-2.9057-2.9094-2.6364-7.5235 0.5871-10.061 2.3483-1.8486 5.8283-1.9058 8.1515-0.1337l0.4962 0.3784v-0.5297c0-0.9561 0.3064-1.6551 1.0541-2.4044zm-1.4768 6.0773c-0.4464-0.9081-1.2967-1.7537-2.1891-2.1771-0.9217-0.4374-2.4261-0.5317-3.3171-0.208-3.8593 1.4024-4.1649 6.5816-0.4949 8.3862 0.5851 0.2877 0.9113 0.3465 1.906 0.3429 1.0169-0.0036 1.31-0.0614 1.9211-0.3781 1.0634-0.551 1.5068-0.9792 2.0401-1.9703 0.4364-0.8108 0.4787-0.9958 0.4798-2.0897 1e-3 -0.9907-0.0593-1.3231-0.3459-1.9059zm4.594-4.5239c0.2185 0.2184 0.3466 0.5078 0.3466 0.7828 0 0.2751-0.1281 0.5645-0.3466 0.7829-0.2184 0.2185-0.5078 0.3466-0.7829 0.3466-0.275 0-0.5644-0.1281-0.7828-0.3466-0.2186-0.2184-0.3466-0.5078-0.3466-0.7829 0-0.275 0.128-0.5644 0.3466-0.7828 0.2184-0.2186 0.5078-0.3466 0.7828-0.3466 0.2751 0 0.5645 0.128 0.7829 0.3466z" clip-rule="evenodd" fill="#DB3138" fill-rule="evenodd"/>
</svg>
