<?xml version="1.0" encoding="UTF-8"?>
<svg viewBox="0 0 57 70" xmlns="http://www.w3.org/2000/svg">
<path d="m2.2739 0.17875c-0.69272 0.21834-1.8742 1.4418-2.0866 2.1607-0.24968 0.84515-0.24968 64.47 0 65.315 0.22907 0.7753 1.3983 1.9445 2.1736 2.1736 0.44488 0.1314 5.5838 0.1716 21.945 0.1716h21.364l5.4006-5.4007 5.4008-5.4006v-28.139c0-21.331-0.0407-28.275-0.1679-28.699-0.0923-0.30797-0.4423-0.86534-0.7779-1.2386-1.1052-1.2293 1.3513-1.1293-27.343-1.113-18.099 0.010303-25.558 0.059279-25.909 0.17007zm51.593 2.4203 0.3465 0.34636v54.634h-3.618c-2.428 0-3.8091 0.0565-4.1989 0.1717-0.7753 0.229-1.9445 1.3982-2.1736 2.1735-0.1152 0.3899-0.1716 1.7709-0.1716 4.199v3.618h-41.085l-0.34636-0.3465-0.3465-0.3464v-64.104l0.3465-0.34636 0.34636-0.3465h50.554l0.3464 0.3465zm-32.892 2.1093c-1.7191 0.43951-2.0869 0.69526-6.2102 4.3183-1.7854 1.5689-3.4368 2.9727-3.6696 3.1196-0.2329 0.1471-0.6458 0.2682-0.9174 0.2692-0.62248 0.0024-1.7796 0.5387-2.3146 1.0727-0.22498 0.2247-0.56287 0.7414-0.75087 1.1484-0.33366 0.7225-0.34057 0.8123-0.29654 3.8108 0.04475 3.0464 0.04827 3.0767 0.4381 3.8166 0.52152 0.9898 1.3506 1.7712 2.2942 2.1623 0.50138 0.2079 0.77078 0.4025 0.77078 0.5569 0 0.1306 0.223 0.683 0.4954 1.2277 2.0753 4.1482 7.9403 4.1534 10.014 0.0087 0.2748-0.5495 0.4998-1.0858 0.4998-1.1918 0-0.1598 0.9901-0.1928 5.7867-0.1928 4.7967 0 5.7868 0.033 5.7868 0.1928 0 0.106 0.223 0.6384 0.4954 1.1831 2.0753 4.1482 7.9403 4.1534 10.014 0.0087 0.2748-0.5495 0.4997-1.0858 0.4997-1.1918 0-0.1503 0.3156-0.1928 1.4304-0.1928 0.7867 0 1.6917-0.0772 2.0112-0.1716 0.7753-0.2291 1.9445-1.3983 2.1736-2.1736 0.1129-0.3823 0.1716-1.6917 0.1716-3.8304 0-2.8865-0.0277-3.2831-0.247-3.5495-0.1852-0.225-1.2323-0.5811-4.1825-1.4224-2.1646-0.6174-3.9486-1.1403-3.9645-1.1623-0.016-0.0221-0.9762-1.3728-2.1335-3.0015-1.1575-1.6289-2.349-3.2071-2.6478-3.5072-0.2988-0.30006-0.9657-0.74578-1.482-0.99038l-0.9387-0.44473-6.2102-0.02668c-4.6543-0.02004-6.387 0.01849-6.9159 0.1537zm5.0105 4.8129v2.7522h-5.7464c-4.8821 0-5.7153-0.0292-5.5398-0.1941 1.2049-1.1315 5.2139-4.528 5.5533-4.705 0.9183-0.47861 1.579-0.58658 3.6511-0.5959l2.0818-0.00945v2.7522zm8.1156-2.4168c0.8669 0.40888 0.9475 0.49822 2.817 3.1225l1.5082 2.1171-4.0679 0.043c-2.2375 0.0236-4.5285 0.0023-5.0914-0.0474l-1.0233-0.0903v-5.4804l2.5759 0.00141c2.4109 0.00127 2.6209 0.02258 3.2815 0.33408zm8.4851 8.1575 1.9924 0.5715-0.2282 0.443c-0.3537 0.6861-0.2996 2.0148 0.1088 2.6758 0.4712 0.7624 1.2371 1.2259 2.188 1.324l0.7917 0.0817v0.7629c0 0.6219-0.0641 0.8271-0.3465 1.1094-0.3218 0.3219-0.447 0.3465-1.7643 0.3465-1.1041 0-1.4178-0.0427-1.4178-0.1928 0-0.106-0.223-0.6384-0.4954-1.1831-0.6021-1.2033-1.449-2.0187-2.7254-2.6233-0.8526-0.404-1.0711-0.4468-2.2836-0.4468-1.2126 0-1.4311 0.0428-2.2837 0.4468-1.2763 0.6046-2.1233 1.42-2.7254 2.6233-0.2724 0.5447-0.4954 1.0771-0.4954 1.1831 0 0.1597-0.9901 0.1928-5.7868 0.1928-4.7966 0-5.7867-0.0331-5.7867-0.1928 0-0.106-0.223-0.6384-0.4954-1.1831-0.6022-1.2033-1.4491-2.0187-2.7255-2.6233-0.8526-0.404-1.0711-0.4468-2.2836-0.4468-1.2126 0-1.431 0.0428-2.2837 0.4468-0.5184 0.2455-1.2241 0.7059-1.5679 1.0228-0.6186 0.5702-1.5118 2.0276-1.5118 2.4669 0 0.301-0.1686 0.2866-0.59812-0.0513-0.5345-0.4204-0.81325-1.139-0.81325-2.0966v-0.8504l0.75312-0.3449c1.3832-0.6332 2.3746-1.9935 2.5832-3.5439l0.0932-0.6923 14.058 0.1012 14.058 0.1013 1.9927 0.5716zm-32.462-0.1423c-0.0946 0.473-0.71502 1.388-0.94113 1.388-0.17276 0-0.17233-0.5863 7.1e-4 -1.0415 0.10712-0.2817 0.69765-0.7579 0.97682-0.7877 0.0291-0.0031 0.0127 0.1955-0.0364 0.4412zm6.8288 1.8114v1.1292h3.3874v-2.2583h-3.3874v1.1291zm13.55 0v1.1292h3.3874v-2.2583h-3.3874v1.1291zm16.937 0.5646c0 0.5242-0.0283 0.5646-0.3952 0.5646-0.4419 0-0.734-0.2247-0.734-0.5646s0.2921-0.5646 0.734-0.5646c0.3669 0 0.3952 0.0404 0.3952 0.5646zm-30.573 2.9944c1.2129 0.3584 2.3451 1.911 2.3451 3.2158 0 1.7489-1.6385 3.3874-3.3873 3.3874-1.7489 0-3.3874-1.6385-3.3874-3.3874 0-0.8871 0.3229-1.6028 1.0538-2.3352 0.9901-0.9922 2.0565-1.2704 3.3758-0.8806zm22.582 0c1.213 0.3584 2.3452 1.911 2.3452 3.2158 0 1.7489-1.6385 3.3874-3.3873 3.3874-1.7489 0-3.3874-1.6385-3.3874-3.3874 0-0.8871 0.3229-1.6028 1.0537-2.3352 0.9901-0.9922 2.0566-1.2704 3.3758-0.8806zm-24.754 3.2158v1.1291h2.2582v-2.2582h-2.2582v1.1291zm22.582 0v1.1291h2.2583v-2.2582h-2.2583v1.1291zm0.988 8.6801-1.4769 1.482h-6.7221l-0.3463 0.3465-0.3465 0.3464v7.6473l0.3465 0.3463 0.3463 0.3465h7.6473l0.3464-0.3465 0.3465-0.3463v-6.7222l1.4819-1.4768c0.8151-0.8123 1.482-1.544 1.482-1.626 0-0.1869-1.3012-1.4791-1.4893-1.4791-0.0764 0-0.8035 0.6669-1.6158 1.4819zm-20.183 3.7403v1.1291h9.033v-2.2583h-9.033v1.1292zm24.841 0v1.1291h9.033v-2.2583h-9.033v1.1292zm-9.0737 0.6752c-0.3657 0.3715-0.6581 0.7366-0.6498 0.8115 0.0083 0.075 0.3598 0.4496 0.7808 0.8323l0.7655 0.696 0.7012-0.6906 0.7012-0.6907v2.8828h-4.5165v-4.5165h2.8828l-0.6652 0.6752zm-18.025 3.8413v1.1291h11.291v-2.2583h-11.291v1.1292zm24.841 0v1.1291h11.291v-2.2583h-11.291v1.1292zm-27.24 3.0345-1.4769 1.482h-6.7221l-0.34636 0.3465-0.3465 0.3463v7.6473l0.3465 0.3464 0.34636 0.3465h7.6473l0.3463-0.3465 0.3465-0.3464v-6.7221l1.482-1.4769c0.8151-0.8123 1.482-1.5439 1.482-1.6259 0-0.1869-1.3012-1.4792-1.4893-1.4792-0.0764 0-0.8036 0.6669-1.6158 1.482zm24.841 0-1.4769 1.482h-6.7221l-0.3463 0.3465-0.3465 0.3463v7.6473l0.3465 0.3464 0.3463 0.3465h7.6473l0.3464-0.3465 0.3465-0.3464v-6.7221l1.4819-1.4769c0.8151-0.8123 1.482-1.5439 1.482-1.6259 0-0.1869-1.3012-1.4792-1.4893-1.4792-0.0764 0-0.8035 0.6669-1.6158 1.482zm-20.183 3.7402v1.1291h9.033v-2.2582h-9.033v1.1291zm24.841 0v1.1291h9.033v-2.2582h-9.033v1.1291zm-33.914 0.6752c-0.3657 0.3715-0.65814 0.7366-0.64981 0.8116 0.00833 0.0749 0.35976 0.4495 0.78079 0.8323l0.76554 0.696 0.7012-0.6906 0.7012-0.6908v2.8828h-4.5165v-4.5165h2.8828l-0.66519 0.6752zm24.841 0c-0.3657 0.3715-0.6581 0.7366-0.6498 0.8116 0.0083 0.0749 0.3598 0.4495 0.7808 0.8323l0.7655 0.696 0.7012-0.6906 0.7012-0.6908v2.8828h-4.5165v-4.5165h2.8828l-0.6652 0.6752zm-18.025 3.8413v1.1291h11.291v-2.2582h-11.291v1.1291zm24.841 0v1.1291h11.291v-2.2582h-11.291v1.1291zm-27.24 3.0345-1.4769 1.482h-6.7221l-0.34636 0.3465-0.3465 0.3464v7.6472l0.3465 0.3464 0.34636 0.3465h7.6473l0.3463-0.3465 0.3465-0.3464v-6.7221l1.482-1.4769c0.8151-0.8122 1.482-1.5439 1.482-1.6259 0-0.1869-1.3012-1.4791-1.4893-1.4791-0.0764 0-0.8036 0.6668-1.6158 1.4819zm4.6576 3.7403v1.1291h9.033v-2.2583h-9.033v1.1292zm-9.0736 0.6752c-0.3657 0.3715-0.65814 0.7366-0.64981 0.8115 0.00833 0.075 0.35976 0.4496 0.78079 0.8323l0.76554 0.696 0.7012-0.6906 0.7012-0.6907v2.8828h-4.5165v-4.5165h2.8828l-0.66519 0.6752zm43.512 0.4904c0 0.0201-1.3973 1.4326-3.1051 3.1391l-3.1051 3.1027v-2.7927c0-3.7484-0.2602-3.4856 3.4516-3.4856 1.5173 0 2.7586 0.0164 2.7586 0.0365zm-36.696 3.3509v1.1291h11.291v-2.2583h-11.291v1.1292z" clip-rule="evenodd" fill="#fff" fill-rule="evenodd"/>
<path d="m13.424 32.386-1.4769 1.482h-6.7221l-0.34636 0.3465-0.3465 0.3463v7.6473l0.3465 0.3464 0.34636 0.3465h7.6473l0.3464-0.3465 0.3465-0.3464v-6.7221l1.482-1.4769c0.815-0.8123 1.4819-1.5439 1.4819-1.6259 0-0.1869-1.3011-1.4792-1.4893-1.4792-0.0763 0-0.8035 0.6669-1.6158 1.482zm-4.416 4.4154c-0.36569 0.3715-0.65814 0.7366-0.64981 0.8116 0.00833 0.0749 0.35977 0.4495 0.78079 0.8323l0.76555 0.696 0.70114-0.6906 0.7012-0.6908v2.8828h-4.5165v-4.5165h2.8828l-0.6652 0.6752z" clip-rule="evenodd" fill="#DB3138" fill-rule="evenodd"/>
<path d="m13.424 43.683-1.4769 1.482h-6.7221l-0.34636 0.3465-0.3465 0.3464v7.6473l0.3465 0.3463 0.34636 0.3465h7.6473l0.3464-0.3465 0.3465-0.3463v-6.7221l1.482-1.4769c0.815-0.8123 1.4819-1.544 1.4819-1.626 0-0.1869-1.3011-1.4791-1.4893-1.4791-0.0763 0-0.8035 0.6669-1.6158 1.4819zm-4.416 4.4155c-0.36569 0.3715-0.65814 0.7366-0.64981 0.8115 0.00833 0.075 0.35977 0.4496 0.78079 0.8323l0.76555 0.696 0.70114-0.6906 0.7012-0.6907v2.8828h-4.5165v-4.5165h2.8828l-0.6652 0.6752z" clip-rule="evenodd" fill="#DB3138" fill-rule="evenodd"/>
<path d="m13.424 54.974-1.4769 1.482h-6.7221l-0.34636 0.3465-0.3465 0.3463v7.6473l0.3465 0.3464 0.34636 0.3465h7.6473l0.3463-0.3465 0.3465-0.3464v-6.7221l1.482-1.4769c0.8151-0.8123 1.482-1.5439 1.482-1.6259 0-0.1869-1.3012-1.4792-1.4893-1.4792-0.0764 0-0.8036 0.6669-1.6158 1.482zm-4.4161 4.4155c-0.36569 0.3715-0.65814 0.7366-0.64981 0.8116 0.00833 0.0749 0.35977 0.4495 0.78079 0.8323l0.76555 0.6959 0.70118-0.6906 0.7012-0.6907v2.8828h-4.5165v-4.5165h2.8828l-0.6652 0.6752z" clip-rule="evenodd" fill="#DB3138" fill-rule="evenodd"/>
<path d="m38.236 43.683-1.4769 1.482h-6.7221l-0.3463 0.3465-0.3465 0.3464v7.6473l0.3465 0.3463 0.3463 0.3465h7.6473l0.3464-0.3465 0.3465-0.3463v-6.7221l1.482-1.4769c0.815-0.8123 1.4819-1.544 1.4819-1.626 0-0.1869-1.3011-1.4791-1.4893-1.4791-0.0763 0-0.8035 0.6669-1.6158 1.4819zm-4.416 4.4155c-0.3657 0.3715-0.6581 0.7366-0.6498 0.8115 0.0083 0.075 0.3598 0.4496 0.7808 0.8323l0.7656 0.696 1.4023-1.3813v2.8828h-4.5165v-4.5165h2.8828l-0.6652 0.6752z" clip-rule="evenodd" fill="#DB3138" fill-rule="evenodd"/>
<path d="m38.236 32.392-1.4769 1.482h-6.7221l-0.3463 0.3465-0.3465 0.3463v7.6473l0.3465 0.3464 0.3463 0.3465h7.6473l0.3464-0.3465 0.3465-0.3464v-6.7221l1.482-1.4769c0.815-0.8123 1.4819-1.5439 1.4819-1.6259 0-0.1869-1.3011-1.4792-1.4893-1.4792-0.0763 0-0.8035 0.6669-1.6158 1.482zm-4.416 4.4154c-0.3657 0.3715-0.6581 0.7366-0.6498 0.8116 0.0083 0.0749 0.3598 0.4495 0.7808 0.8323l0.7656 0.696 0.7011-0.6906 0.7012-0.6908v2.8828h-4.5165v-4.5165h2.8828l-0.6652 0.6752z" clip-rule="evenodd" fill="#DB3138" fill-rule="evenodd"/>
</svg>
