<?xml version="1.0" encoding="UTF-8"?>
<svg viewBox="0 0 70 57" xmlns="http://www.w3.org/2000/svg">
<path d="m51.794 2.7176c-3.2463 2.0412-4.2052 2.5775-4.9683 2.7786l-0.9456 0.24932-5.0902-0.61962c-5.7097-0.69492-6.5373-0.70357-8.9308-0.09346-0.7555 0.19259-1.8662 0.59565-2.4681 0.8956s-3.9404 2.3854-7.419 4.6343c-6.4943 4.1988-6.8366 4.4643-7.0868 5.4986-0.0523 0.2167-0.3282 0.5443-0.6425 0.7631-0.303 0.2109-0.7432 0.6755-0.9783 1.0322-0.7675 1.1642-0.8448 1.6885-0.8448 5.722v3.6616h-12.419v2.2691h18.147c9.9808 0 18.122 0.0478 18.092 0.1064-1.0304 2.016-1.6377 3.6732-2.0401 5.5665-0.3539 1.6651-0.3484 5.2631 0.0106 6.9435 1.6061 7.5177 7.371 13.141 14.752 14.388 9.9757 1.6864 19.344-5.231 20.836-15.386 0.5686-3.8669-0.1149-7.4995-2.1661-11.513-0.0299-0.0586 0.4907-0.1064 1.157-0.1064h1.2113v-2.2691h-3.9422l-1.1986-1.2495c-3.6081-3.7612-8.6361-5.78-13.7-5.5008-0.9315 0.0514-1.8999 0.1306-2.1522 0.176-0.4326 0.078-0.4587 0.0589-0.4587-0.3364 0-0.3706 0.0694-0.4398 0.5998-0.5973 1.0459-0.3109 2.681-1.2529 3.7752-2.1749 0.5821-0.4905 2.9319-2.064 5.2218-3.4967 2.2898-1.4327 4.2412-2.676 4.3364-2.763 0.1347-0.1225 0.0458-0.3683-0.3971-1.0991l-0.5706-0.94125-1.6491 1.0318c-0.907 0.5676-2.8875 1.8061-4.4011 2.7523-1.5136 0.9463-3.0952 2.02-3.5148 2.386-1.2525 1.0928-2.4935 1.8321-3.7951 2.2608-1.1259 0.3709-1.3932 0.4035-3.2042 0.3917-1.6567-0.0109-2.3292-0.0876-4.1633-0.4757-1.8518-0.3917-2.6208-0.4783-5.0101-0.5648-1.5524-0.0563-2.9902-0.1731-3.195-0.2596-0.7114-0.3002-1.8151-1.4809-1.8151-1.9418 0-0.043 1.7147-0.078 3.8105-0.078h3.8105v-2.2691h-9.3257l-4.9492 2.7591c-5.213 2.9062-5.8556 3.174-6.6032 2.7523-0.5014-0.2828-0.6932-0.8902-0.4277-1.3546 0.1967-0.3441 11.663-7.8737 13.12-8.616 1.3611-0.69308 3.455-1.2102 4.9302-1.2177 0.432-0.00212 2.99 0.26649 5.6843 0.59707 6.7855 0.83263 6.2547 0.95361 12.262-2.7947 1.9716-1.2302 3.6632-2.3083 3.7591-2.3961 0.1361-0.12438 0.0552-0.35398-0.3689-1.0469-0.2987-0.48829-0.5677-0.9095-0.5977-0.93616s-1.8648 1.0898-4.0773 2.4809zm-38.739-0.26889c-0.3785 0.21571-0.4413 0.3242-0.7858 1.3561-0.3552 1.0638-0.9285 1.6919-1.6541 1.8126-0.8814 0.14636-1.2684 0.35541-1.4431 0.77959-0.34266 0.83108 0.15284 1.4464 1.3104 1.6275 0.8273 0.12949 1.39 0.73024 1.7865 1.9075 0.3601 1.0687 0.6793 1.4237 1.2801 1.4237 0.596 0 0.9467-0.3707 1.2676-1.3395 0.1665-0.5029 0.4364-1.0851 0.5997-1.2937 0.3336-0.42603 1.0453-0.77052 1.5922-0.77052 0.5064 0 1.0566-0.59082 1.0566-1.1346 0-0.58331-0.5488-1.1346-1.1296-1.1346-0.9856 0-1.6495-0.6467-2.1189-2.0642-0.4042-1.2205-0.9902-1.6097-1.7616-1.17zm0.7712 4.15c0.1346 0.16296 0.128 0.2679-0.0314 0.49652-0.2012 0.28875-0.2029 0.28875-0.4551 0.00865-0.207-0.23003-0.2207-0.32009-0.0752-0.49637 0.2222-0.26918 0.345-0.27117 0.5617-0.0088zm-8.7056 7.1974c-0.18135 0.0881-0.41224 0.4275-0.54829 0.806-0.66612 1.8537-0.97223 2.2005-2.1361 2.4189-0.67812 0.1273-1.3066 0.6498-1.3066 1.0862 0 0.4473 0.43327 1.0457 0.81403 1.1241 1.5548 0.3202 1.9373 0.6444 2.4211 2.052 0.3524 1.0251 0.70311 1.4182 1.2652 1.4182 0.61194 0 0.96011-0.3635 1.2834-1.3395 0.16653-0.5029 0.43637-1.0851 0.59966-1.2937 0.33363-0.426 1.0453-0.7705 1.5922-0.7705 0.50637 0 1.0566-0.5908 1.0566-1.1346 0-0.5833-0.54886-1.1345-1.1296-1.1345-0.98564 0-1.6495-0.6468-2.1189-2.0643-0.40758-1.2308-0.94359-1.5801-1.7928-1.1683zm23.497 1.9296c0.0358 0.1081-0.1126 0.1668-0.4147 0.1638-0.4461-0.0042-0.4561-0.0153-0.1937-0.2145 0.3021-0.2296 0.5214-0.2113 0.6084 0.0507zm-22.695 2.2187c0.13464 0.1629 0.128 0.2679-0.03133 0.4965-0.20125 0.2888-0.20295 0.2888-0.45514 0.0087-0.20704-0.2301-0.22073-0.3201-0.07522-0.4964 0.22227-0.2692 0.34506-0.2712 0.56169-0.0088zm25.507 0.7429 1.0551 0.524 2.9867 0.1032c2.552 0.0884 3.2848 0.1674 5.0332 0.5426 1.3794 0.296 2.6559 0.4685 3.9164 0.529l1.8699 0.0899v0.4593c0 0.3827-0.0645 0.4752-0.3881 0.5559-0.7951 0.1983-3.2507 1.4941-4.4238 2.3345-0.6673 0.4781-1.7708 1.4418-2.4523 2.1417l-1.2391 1.2724h-23.11v-3.6236c0-3.0661 0.0353-3.6931 0.2296-4.0773 0.3132-0.6189 0.3132-0.6189 0.5564-0.2702 0.3759 0.5395 1.4073 1.0428 2.3039 1.1245 1.1289 0.1028 2.3667-0.297 4.2488-1.3727l1.4819-0.8468 6.8759-0.0105 1.0551 0.5241zm3.571 2.8796v1.1346h2.2581v-2.2691h-2.2581v1.1345zm19.408 1.3432c6.5846 1.0733 11.649 6.0186 13.075 12.768 0.2322 1.0985 0.2322 4.7163 0 5.8147-1.3825 6.5422-6.1449 11.328-12.655 12.717-1.093 0.2333-4.6932 0.2333-5.7863 0-4.9052-1.0468-8.8406-3.974-11.047-8.2174-2.4435-4.6984-2.4796-9.8824-0.1023-14.639 3.0267-6.056 9.8285-9.5333 16.516-8.4434zm-34.086 2.0605v1.1346h2.258v-2.2691h-2.258v1.1345z" clip-rule="evenodd" fill="#fff" fill-rule="evenodd"/>
<path d="m41.066 30.999c0.6028-1.2229 1.7564-2.171 3.0377-2.4963 0.2329-0.0592 2.3604-0.0961 4.7278-0.082 4.1587 0.0247 4.3261 0.0363 4.9439 0.3456 1.0056 0.5035 1.5997 1.0759 2.1226 2.0448l0.4839 0.897 0.0467 3.1287 0.0468 3.1287 0.5042-0.4643c0.8823-0.8121 1.6562-1.1042 2.9306-1.1066 1.313-0.0026 2.0898 0.2876 3.0121 1.1249 1.2428 1.1283 1.6093 2.6338 1.2986 5.3343-0.3954 3.4366-0.9554 4.6176-2.6045 5.4919l-0.7183 0.3809h-16.936l-0.8927-0.4863c-0.9642-0.5254-1.5338-1.1225-2.0348-2.1329-0.3174-0.6405-0.3185-0.6659-0.3185-7.521v-6.8783l0.3494-0.7091zm20.818 12.339c0.42-2.8072 0.1829-3.8988-0.9683-4.4588-0.646-0.3143-1.2209-0.3576-1.7787-0.1339-0.5507 0.2208-0.8486 0.5573-1.3034 1.4726-0.7387 1.4865-1.0726 1.7393-3.6588 2.7718-0.8042 0.3209-1.6041 0.7165-1.7775 0.8787-0.7041 0.6586-0.4938 1.9906 0.3865 2.4481 0.3713 0.1931 0.966 0.2197 4.0891 0.1837l3.6544-0.0421 0.4292-0.4134c0.524-0.5048 0.6555-0.8885 0.9275-2.7067zm-8.7316-12.331c0.2142 0.1609 0.5204 0.4685 0.6804 0.6838 0.2763 0.3715 0.2931 0.6048 0.3322 4.6175l0.0411 4.2263-1.1701 0.4696c-1.5667 0.6288-2.1277 0.9992-2.6352 1.7404-0.6914 1.0099-0.9032 2.5037-0.5025 3.5433 0.0937 0.2433-0.0486 0.2544-2.7322 0.2127-3.101-0.0481-3.1965-0.073-3.9005-1.0201-0.2818-0.3791-0.2923-0.5858-0.333-6.515-0.0231-3.368-0.0047-6.3291 0.0409-6.5804 0.1031-0.5678 0.6955-1.292 1.2642-1.5451 0.3351-0.1492 1.3273-0.1842 4.4779-0.1586 3.8401 0.0315 4.0673 0.0482 4.4368 0.3256z" clip-rule="evenodd" fill="#DB3138" fill-rule="evenodd"/>
</svg>