<?xml version="1.0" encoding="UTF-8"?>
<svg viewBox="0 0 70 71" xmlns="http://www.w3.org/2000/svg">
<path d="m45.383 0.7291c-4.1967 0.59938-8.1281 3.311-10.282 7.0922-0.3208 0.56311-1.2164 2.7192-1.9903 4.7914l-1.4069 3.7676h-1.2039v-0.7826c0-0.6428-0.0619-0.8446-0.3463-1.129-0.3287-0.329-0.4306-0.3463-2.0103-0.3449-1.8393 0.0017-4.9435 0.3043-6.4412 0.6279-1.7174 0.3711-2.7806 1.2401-3.3372 2.7277-0.7483 1.9991 0.158 4.26 2.0873 5.2078 0.7915 0.389 0.8676 0.3981 3.8535 0.4673l3.046 0.0706-1.6839 2.0463c-1.8972 2.3055-2.8211 3.611-3.4796 4.9163-0.3617 0.717-0.4983 0.8728-0.6897 0.7873-0.1313-0.0585-0.7784-0.2993-1.4379-0.535-1.0963-0.3916-1.3564-0.429-3.0331-0.4345-2.0867-0.0071-3.1692 0.2489-4.9375 1.168-1.3705 0.7121-3.3599 2.7-4.0506 4.0475-1.3729 2.6782-1.5832 5.355-0.64555 8.2126l0.29639 0.9034-1.838 1.8634c-1.0111 1.0249-1.9468 2.0769-2.0794 2.338-0.37158 0.7308-0.43464 1.8349-0.15306 2.6828l0.24109 0.7263-0.55977 0.8869c-1.3369 2.1176-2.3236 4.5226-2.8659 6.9856-0.26409 1.1993-0.30965 1.9497-0.36834 6.0613l-0.066727 4.6926h2.2567l0.07011-4.622c0.07449-4.9203 0.12612-5.3649 0.8968-7.7268 0.41249-1.2644 1.3997-3.3259 2.0352-4.2499 0.3799-0.5523 0.4527-0.5967 0.77759-0.4732 0.53339 0.203 1.3317 0.1656 2.1135-0.0988 0.56767-0.1919 1.0511-0.5848 2.636-2.1426l1.9408-1.9076 0.8806 0.3023c1.1094 0.3809 2.3233 0.596 3.363 0.596 0.7707 0 2.6011-0.2915 3.1253-0.4976 0.2276-0.0895 0.247 0.0502 0.2493 1.7879 0.0028 2.0954 0.2206 3.3981 0.7687 4.5956l0.3575 0.7813v5.3647c0 3.7995 0.0501 5.5343 0.1715 5.9457 0.229 0.7752 1.3976 1.9443 2.1725 2.1733 0.408 0.1206 2.0677 0.1717 5.5825 0.1717 5.8081 0 5.9334-0.0204 6.9282-1.1274 0.8345-0.9283 0.9454-1.4066 0.9454-4.0755 0-2.1766 0.0122-2.277 0.2798-2.277 0.154 0 1.3124 0.0936 2.5746 0.2079 4.3663 0.3954 8.2661 0.4973 19.047 0.4975l10.827 3e-4v-2.2327l-12.661-0.0648c-14.571-0.0746-16.372-0.1717-24.3-1.3099-5.5529-0.7974-6.764-1.1961-8.3331-2.7434-0.9997-0.9857-1.5335-1.921-1.8904-3.3109-0.2507-0.9768-0.3149-5.7214-0.0775-5.7214 0.2805 0 2.1084-1.8695 2.6677-2.7285 0.9874-1.516 1.7083-3.7413 1.7083-5.273 0-0.4441 0.0337-0.4885 0.3174-0.4193 0.5984 0.1464 6.1008 0.7916 7.9676 0.9343 1.0264 0.0786 3.1957 0.1855 4.8207 0.2378l2.9543 0.095 0.4501-0.4502c0.4301-0.4303 0.4456-0.4844 0.3525-1.2291-0.3432-2.7481-1.6891-5.4583-3.8033-7.6592-1.2613-1.3131-2.3795-2.1151-4.0578-2.9104-2.0798-0.9856-3.2277-1.2166-6.5741-1.3229l-2.8626-0.091 2.7688-3.386 2.7688-3.3858 1.5505-0.248c4.0914-0.6544 10.332-1.3232 15.566-1.6683 1.3191-0.0871 6.5087-0.1914 11.533-0.232l9.1344-0.074v-2.2598l-9.2755 0.0743c-9.2198 0.0738-12.348 0.2038-17.81 0.7398-2.6365 0.2589-6.378 0.716-8.1024 0.9902-0.6934 0.1102-1.2915 0.1695-1.3292 0.1317-0.0864-0.0864 2.53-7.1175 3.1676-8.5124 1.2544-2.7444 3.6527-4.9906 6.5462-6.1312 2.017-0.79498 2.2343-0.80669 15.04-0.80669h11.764v-2.2581l-11.885 0.017217c-6.5369 0.009456-12.266 0.071553-12.732 0.13802zm-17.14 16.434c0 0.6428 0.062 0.8446 0.3464 1.129 0.2971 0.2974 0.4772 0.3465 1.2696 0.3465 0.6863 0 0.9233 0.0495 0.9233 0.1928 0 0.1059-0.3333 0.6102-0.7406 1.1205l-0.7406 0.9279-3.7384 0.0079c-3.4899 0.0074-3.7691-0.0108-4.1982-0.2726-1.2682-0.7735-1.3365-2.5227-0.1294-3.3139 0.6082-0.3988 3.6552-0.8576 5.9852-0.9015l1.0227-0.0192v0.7826zm5.0525 13.171c2.032 0.6033 4.0968 1.8632 5.4312 3.3141 1.2028 1.3079 2.4013 3.4619 2.7008 4.8542l0.0988 0.4586-0.6109-0.0021c-2.257-0.0074-8.489-0.5123-11.121-0.9008l-1.1991-0.177 0.6348-0.1961c0.8322-0.2573 1.9914-1.4014 2.2267-2.198 0.3908-1.3232 0.1153-2.3781-0.8817-3.3755-1.431-1.4315-3.2331-1.4279-4.6785 0.0092-0.4448 0.4421-0.763 0.8987-0.8258 1.1846l-0.102 0.4652-1.3698-1.3498 0.6502-1.2594 0.6502-1.2595 3.682 0.063c3.2528 0.0556 3.802 0.0986 4.7137 0.3693zm16.461-0.2741c-1.2696 0.3073-2.4439 1.2692-3.0271 2.4797-0.4108 0.8525-0.5596 3.0661-0.2927 4.3523 0.5426 2.6147 2.7653 4.8218 5.35 5.3121 0.4651 0.0883 4.1403 0.144 9.4864 0.144h8.7273v-2.258h-2.2572v-3.3871h2.2572v-2.2581h-2.2572v-2.258h2.2572v-2.2581l-9.9103 0.0144c-5.4506 8e-3 -10.101 0.0605-10.334 0.1168zm-30.391 2.5402c1.6631 0.5168 3.4763 1.9325 4.3293 3.3802 1.392 2.3626 1.5048 5.1077 0.3118 7.5864-1.1919 2.4765-3.633 4.1433-6.4122 4.3782-0.9862 0.0834-2.8224-0.1442-2.9599-0.3669-0.0342-0.0552 0.3316-0.4849 0.8128-0.9549l0.8749-0.8544 1.0361-0.0803c2.0517-0.1589 3.7157-1.2969 4.6442-3.1766 0.4973-1.0066 0.5269-1.1422 0.5269-2.4145 0-1.2207-0.0422-1.4371-0.4465-2.2908-0.6213-1.3121-1.421-2.1292-2.705-2.764-1.0073-0.498-1.1406-0.5271-2.4208-0.5271-1.2803 0-1.4136 0.0291-2.4208 0.5271-1.879 0.9289-3.0166 2.5935-3.1754 4.6461l-0.0803 1.0365-0.854 0.8752c-0.46981 0.4814-0.90093 0.8464-0.9582 0.811-0.05714-0.0353-0.18072-0.5198-0.27453-1.0766-0.67743-4.0176 2.0431-8.0226 6.0703-8.9363 1.1661-0.2644 2.8705-0.1806 4.1013 0.2017zm32.578 0.7157v1.129h-1.6929c-1.8392 0-1.8451-0.0031-1.5423-0.8023 0.3614-0.9543 1.1761-1.4418 2.424-1.4502l0.8112-0.0055v1.129zm4.5143 0v1.129h-2.2572v-2.258h2.2572v1.129zm4.5143 0v1.129h-2.2572v-2.258h2.2572v1.129zm4.5143 0v1.129h-2.2572v-2.258h2.2572v1.129zm-36.461 0.3465c0.6998 0.7 0.204 1.9116-0.7823 1.9116-0.2748 0-0.564-0.1281-0.7822-0.3465-0.2184-0.2183-0.3463-0.5077-0.3463-0.7826s0.1279-0.5642 0.3463-0.7825c0.2182-0.2185 0.5074-0.3465 0.7822-0.3465 0.2749 0 0.564 0.128 0.7823 0.3465zm5.0652-0.1479c-1.4233 0.6201-1.7595 2.5129-0.6444 3.6285 1.5849 1.5856 4.1822 0.1654 3.7652-2.0589-0.2496-1.3303-1.8373-2.1289-3.1208-1.5696zm-15.987 3.406c0.3396 0.1196 0.885 0.4801 1.212 0.8009 1.306 1.2809 1.368 3.2208 0.1446 4.5315-0.329 0.3525-0.5103 0.4759-0.4512 0.3069 0.2346-0.6703 0.2313-1.6143-0.0083-2.3356-0.6021-1.8137-2.6275-2.792-4.5119-2.1794-0.1749 0.0569-0.057-0.1185 0.3102-0.4615 0.9229-0.8618 2.081-1.094 3.3046-0.6628zm33.84 1.4019v1.6195l-0.3537-0.1345c-0.7068-0.2688-1.1383-0.5477-1.6702-1.0798-0.5318-0.532-0.8106-0.9638-1.0793-1.6708l-0.1344-0.3538h3.2376v1.6194zm4.5143 0.0741v1.6936h-2.2572v-3.3871h2.2572v1.6935zm4.5143 0v1.6936h-2.2572v-3.3871h2.2572v1.6935zm4.5143 0v1.6936h-2.2572v-3.3871h2.2572v1.6935zm-48.941 2.1061c0.2896 0.2899 0.4124 0.5515 0.4124 0.8798 0 0.4255-0.4248 0.8921-4.7635 5.2326-4.3388 4.3405-4.8052 4.7654-5.2305 4.7654-0.6416 0-1.2918-0.6505-1.2918-1.2923 0-0.4255 0.42477-0.8921 4.7634-5.2327 4.3389-4.3404 4.8052-4.7653 5.2306-4.7653 0.3281 0 0.5897 0.1228 0.8794 0.4125zm18.936 3.1861c-0.17 0.1191-0.4342 0.6094-0.6046 1.1214-0.4629 1.3914-1.134 2.0542-2.0803 2.0542-0.2193 0-0.5243 0.0879-0.6777 0.1954-0.2371 0.1661-0.6812 0.167-2.9587 0.0054-3.6248-0.2573-3.5504-0.26-3.9557 0.1456l-0.3463 0.3464v3.2977c0 3.8327 0.0941 4.2964 1.0693 5.2721 0.4259 0.4262 0.8218 0.6638 1.3535 0.813 0.5053 0.1417 3.6062 0.3791 9.4693 0.7246 8.041 0.4737 8.7447 0.4962 9.0616 0.2884 0.1891-0.1239 0.3843-0.3874 0.4341-0.5854 0.1343-0.5354-2.2443-8.8023-2.6224-9.114-0.1948-0.1607-0.7046-0.2653-1.6296-0.3347-1.2825-0.0963-1.3557-0.1194-1.5473-0.4901-0.2192-0.424-0.4696-0.5644-1.006-0.5644-0.8897 0-1.5917-0.6986-2.0209-2.0113-0.3298-1.0087-0.6701-1.3758-1.2758-1.3758-0.1982 0-0.4963 0.0952-0.6625 0.2115zm0.9506 4.1c0.1498 0.1808 0.1406 0.2596-0.0534 0.4536-0.2189 0.2191-0.2505 0.2191-0.4695 0-0.1939-0.194-0.2031-0.2728-0.0533-0.4536 0.0999-0.1203 0.2295-0.2188 0.2881-0.2188 0.0585 0 0.1882 0.0985 0.2881 0.2188zm11.324 0.5708c-0.3533 0.3534-0.3628 0.4075-0.2754 1.5462 0.1896 2.4678 1.1505 4.5122 2.9816 6.3441 1.283 1.2835 2.4597 2.0243 4.0915 2.5756l1.1286 0.3812 14.319 0.0935v-2.2745h-6.6078c-6.1429 0-6.6853-0.0199-7.7095-0.2819-1.4192-0.3631-2.6514-1.059-3.6575-2.0657-0.9231-0.9232-1.4056-1.6897-1.87-2.9696-0.594-1.637-1.7995-1.457 9.7581-1.457h10.087v-2.2581h-21.879l-0.3661 0.3662zm-16.55 1.1127c3.3183 0.2348 3.1567 0.16 3.6687 1.6991 0.3225 0.9694 0.672 1.3381 1.2688 1.3381 0.5895 0 0.9466-0.3699 1.2603-1.3053 0.4551-1.3572 0.2782-1.2734 2.4448-1.1585 1.0504 0.0557 1.9855 0.1481 2.0779 0.2052 0.1742 0.1077 1.7377 5.3666 1.6281 5.4762-0.0542 0.0544-6.8289-0.3151-12.56-0.6849-1.0862-0.0701-2.2179-0.1288-2.5148-0.1305-0.4062-0.0023-0.6421-0.1051-0.9523-0.4155l-0.4123-0.4125v-4.8201l0.5995 0.0021c0.3298 0.0011 1.901 0.0941 3.4916 0.2066zm-5.4674 11.435c1.141 0.5369 2.595 0.8596 6.3843 1.4172 1.3966 0.2057 2.6187 0.3973 2.7157 0.4261 0.1321 0.0392 0.1763 0.6564 0.1763 2.4624 0 2.3707-0.0056 2.4157-0.3463 2.7564l-0.3462 0.3465h-9.9007l-0.3462-0.3465-0.3464-0.3463v-7.9495l0.4929 0.3761c0.2712 0.2069 0.9537 0.5929 1.5166 0.8576z" clip-rule="evenodd" fill="#fff" fill-rule="evenodd"/>
<path d="m7.146 17.856c-0.19045 0.1905-0.34634 0.4629-0.34634 0.6053 0 0.4338-0.41828 1.9059-0.71904 2.531-0.68956 1.4326-2.0695 2.6462-3.5817 3.1496-0.97354 0.3241-1.3422 0.6731-1.3422 1.2708 0 0.5818 0.36806 0.9518 1.1823 1.1886 2.27 0.6602 4.0005 2.7949 4.4088 5.4383 0.26381 1.7083 2.0969 1.7083 2.3607 0 0.40826-2.6434 2.1388-4.7781 4.4088-5.4383 0.8143-0.2368 1.1824-0.6068 1.1824-1.1886 0-0.5977-0.3687-0.9467-1.3422-1.2708-1.5121-0.5034-2.8921-1.717-3.5817-3.1496-0.30076-0.6251-0.71904-2.0972-0.71904-2.531 0-0.4152-0.63624-0.9518-1.1286-0.9518-0.27481 0-0.56401 0.128-0.78224 0.3465zm1.2528 5.2267c0.21994 0.3483 0.81639 1.0151 1.3254 1.4816l0.92528 0.8483-0.92528 0.8483c-0.50899 0.4664-1.1054 1.1333-1.3254 1.4816-0.21993 0.3483-0.43168 0.6332-0.47047 0.6332-0.0388 0-0.25054-0.2849-0.47048-0.6332-0.21993-0.3483-0.81638-1.0152-1.3254-1.4816l-0.92529-0.8483 0.92529-0.8483c0.50899-0.4665 1.1054-1.1333 1.3254-1.4816 0.21994-0.3483 0.43168-0.6333 0.47048-0.6333 0.03879 0 0.25054 0.285 0.47047 0.6333z" clip-rule="evenodd" fill="#DB3138" fill-rule="evenodd"/>
</svg>
